<svg xmlns="http://www.w3.org/2000/svg" xmlns:xlink="http://www.w3.org/1999/xlink" width="1500" viewBox="0 0 1500 450" height="450" version="1.0"><defs><g id="a"><path d="M 13.363281 -75.277344 L 1.035156 -75.277344 C 0.46875 -75.277344 0 -74.804688 0 -74.429688 L 0 -44.882812 L 14.398438 -44.882812 L 14.398438 -61.539062 C 30.769531 -62.386719 42.90625 -55.515625 42.90625 -37.636719 C 42.90625 -14.398438 23.523438 -13.457031 14.398438 -13.832031 L 14.398438 -30.394531 L 0 -30.394531 L 0 -0.847656 C 0 -0.46875 0.46875 0 1.035156 0 L 13.363281 0 C 32.085938 0 57.398438 -5.457031 57.398438 -37.636719 C 57.398438 -71.042969 31.710938 -75.277344 13.363281 -75.277344 Z M 13.363281 -75.277344"/></g><g id="b"><path d="M 35.757812 -14.019531 L 14.398438 -14.019531 L 14.398438 -30.957031 L 43.941406 -30.957031 C 44.507812 -30.957031 44.976562 -31.425781 44.976562 -31.804688 L 44.976562 -43.753906 C 44.976562 -44.226562 44.507812 -44.601562 43.941406 -44.601562 L 14.398438 -44.601562 L 14.398438 -61.632812 L 35.757812 -61.632812 L 35.757812 -75.277344 L 1.035156 -75.277344 C 0.46875 -75.277344 0 -74.804688 0 -74.429688 L 0 -0.847656 C 0 -0.46875 0.46875 0 1.035156 0 L 35.757812 0 Z M 35.757812 -14.019531"/></g><g id="c"><path d="M 39.238281 -61.253906 L 29.359375 -33.6875 L 14.679688 -74.710938 C 14.585938 -75.085938 14.207031 -75.277344 13.738281 -75.277344 L 0.941406 -75.277344 C 0.1875 -75.277344 -0.1875 -74.710938 0.09375 -74.148438 L 28.417969 -0.46875 C 28.792969 0.1875 29.921875 0.1875 30.203125 -0.46875 L 53.726562 -61.253906 Z M 39.238281 -61.253906"/></g><g id="d"><path d="M 40.648438 -14.019531 L 0 -14.019531 L 0 -0.847656 C 0 -0.46875 0.46875 0 1.035156 0 L 40.648438 0 C 41.308594 0 41.683594 -0.46875 41.683594 -0.847656 L 41.683594 -13.078125 C 41.683594 -13.550781 41.308594 -14.019531 40.648438 -14.019531 Z M 14.398438 -28.417969 L 14.398438 -74.429688 C 14.398438 -74.804688 14.019531 -75.277344 13.457031 -75.277344 L 1.035156 -75.277344 C 0.46875 -75.277344 0 -74.804688 0 -74.429688 L 0 -28.417969 Z M 14.398438 -28.417969"/></g><g id="e"><path d="M 43.285156 -37.449219 C 43.285156 -41.402344 40.179688 -44.601562 36.226562 -44.601562 C 32.273438 -44.601562 29.167969 -41.402344 29.167969 -37.449219 C 29.167969 -33.59375 32.273438 -30.394531 36.226562 -30.394531 C 40.179688 -30.394531 43.285156 -33.59375 43.285156 -37.449219 Z M 72.453125 -37.730469 C 72.453125 -56.457031 60.316406 -75.277344 36.320312 -75.277344 C 11.949219 -75.277344 0 -56.457031 0 -37.730469 C 0 -18.914062 11.949219 0 36.320312 0 C 60.316406 0 72.453125 -18.914062 72.453125 -37.730469 Z M 58.339844 -37.449219 C 58.339844 -25.3125 50.90625 -13.171875 36.320312 -13.171875 C 21.546875 -13.171875 14.207031 -25.3125 14.207031 -37.449219 C 14.207031 -49.777344 21.546875 -62.007812 36.320312 -62.007812 C 50.90625 -62.007812 58.339844 -49.777344 58.339844 -37.449219 Z M 58.339844 -37.449219"/></g><g id="f"><path d="M 25.3125 -75.277344 L 0.941406 -75.277344 C 0.46875 -75.277344 0 -74.804688 0 -74.429688 L 0 -61.445312 L 25.3125 -61.445312 C 27.003906 -61.445312 36.414062 -60.972656 36.414062 -52.691406 C 36.414062 -44.414062 27.195312 -44.226562 25.3125 -44.226562 L 0 -44.226562 L 0 -0.847656 C 0 -0.46875 0.46875 0 0.941406 0 L 13.171875 0 C 13.832031 0 14.113281 -0.46875 14.113281 -0.847656 L 14.113281 -30.296875 L 25.3125 -30.296875 C 27.097656 -30.296875 50.71875 -30.582031 50.71875 -52.691406 C 50.71875 -74.804688 28.324219 -75.277344 25.3125 -75.277344 Z M 25.3125 -75.277344"/></g><g id="g"><path d="M 51.375 -1.222656 C 46.671875 -11.667969 41.589844 -22.019531 36.886719 -32.652344 C 44.414062 -35.378906 50.71875 -41.402344 50.71875 -52.882812 C 50.71875 -75.085938 29.546875 -75.277344 25.3125 -75.277344 L 0.941406 -75.277344 C 0.46875 -75.277344 0 -74.804688 0 -74.429688 L 0 -61.632812 L 25.3125 -61.632812 C 27.570312 -61.632812 36.414062 -61.160156 36.414062 -52.882812 C 36.414062 -44.601562 28.417969 -44.226562 25.3125 -44.226562 L 0 -44.226562 L 0 -0.847656 C 0 -0.46875 0.46875 0 0.941406 0 L 13.265625 0 C 13.832031 0 14.300781 -0.46875 14.300781 -0.847656 L 14.300781 -30.394531 L 22.394531 -30.394531 L 36.132812 -0.566406 C 36.226562 -0.28125 36.792969 0 37.074219 0 L 50.527344 0 C 51.28125 0 51.65625 -0.566406 51.375 -1.222656 Z M 51.375 -1.222656"/></g><clipPath id="h"><path d="M 190.011719 421 L 1285.011719 421 L 1285.011719 447.652344 L 190.011719 447.652344 Z M 190.011719 421"/></clipPath></defs><g fill="#81A4C1"><use x="416.129" y="135.4" xmlns:xlink="http://www.w3.org/1999/xlink" xlink:href="#a" xlink:type="simple" xlink:actuate="onLoad" xlink:show="embed"/></g><g fill="#81A4C1"><use x="490.556" y="135.4" xmlns:xlink="http://www.w3.org/1999/xlink" xlink:href="#b" xlink:type="simple" xlink:actuate="onLoad" xlink:show="embed"/></g><g fill="#81A4C1"><use x="551.904" y="135.4" xmlns:xlink="http://www.w3.org/1999/xlink" xlink:href="#c" xlink:type="simple" xlink:actuate="onLoad" xlink:show="embed"/></g><g fill="#81A4C1"><use x="622.473" y="135.4" xmlns:xlink="http://www.w3.org/1999/xlink" xlink:href="#b" xlink:type="simple" xlink:actuate="onLoad" xlink:show="embed"/></g><g fill="#81A4C1"><use x="683.822" y="135.4" xmlns:xlink="http://www.w3.org/1999/xlink" xlink:href="#d" xlink:type="simple" xlink:actuate="onLoad" xlink:show="embed"/></g><g fill="#81A4C1"><use x="741.783" y="135.4" xmlns:xlink="http://www.w3.org/1999/xlink" xlink:href="#e" xlink:type="simple" xlink:actuate="onLoad" xlink:show="embed"/></g><g fill="#81A4C1"><use x="831.922" y="135.4" xmlns:xlink="http://www.w3.org/1999/xlink" xlink:href="#f" xlink:type="simple" xlink:actuate="onLoad" xlink:show="embed"/></g><g fill="#81A4C1"><use x="899.293" y="135.4" xmlns:xlink="http://www.w3.org/1999/xlink" xlink:href="#b" xlink:type="simple" xlink:actuate="onLoad" xlink:show="embed"/></g><g fill="#81A4C1"><use x="960.641" y="135.4" xmlns:xlink="http://www.w3.org/1999/xlink" xlink:href="#g" xlink:type="simple" xlink:actuate="onLoad" xlink:show="embed"/></g><path fill="#81A4C1" d="M 322.109375 170.480469 L 343.996094 170.480469 L 343.996094 193.226562 L 355.671875 193.226562 L 355.671875 213.457031 L 387.023438 213.457031 L 387.023438 232.175781 L 419.582031 232.175781 L 419.582031 250.140625 L 433.269531 250.140625 C 433.269531 250.140625 451.988281 249.636719 451.988281 268.054688 L 451.988281 423.851562 L 322.109375 423.851562 L 322.109375 170.480469"/><path fill="#81A4C1" d="M 1108.332031 236.804688 L 1110.445312 236.804688 C 1110.445312 236.804688 1114.824219 240.679688 1127.605469 240.679688 C 1140.289062 240.679688 1144.714844 236.804688 1144.714844 236.804688 L 1146.78125 236.804688 L 1146.78125 322.957031 L 1108.332031 322.957031 Z M 1235.042969 328.945312 L 1235.042969 215.46875 L 1213.152344 215.46875 L 1213.152344 209.480469 L 1189.855469 209.480469 L 1189.855469 200.925781 L 1181.5 200.925781 L 1181.5 209.480469 L 1172.34375 209.480469 L 1172.34375 200.925781 L 1150.402344 200.925781 L 1150.402344 192.371094 L 1128.511719 192.371094 L 1128.511719 183.867188 L 1106.621094 183.867188 L 1106.621094 173.902344 L 1087.902344 173.902344 L 1087.902344 169.019531 L 1075.777344 169.019531 L 1075.777344 173.902344 L 1043.316406 173.902344 L 1043.316406 328.945312 L 1033.707031 328.945312 L 1033.707031 423.851562 L 1244.90625 423.851562 L 1244.90625 328.945312 L 1235.042969 328.945312"/><path fill="#81A4C1" d="M 466.429688 155.484375 L 517.757812 185.425781 L 517.757812 423.851562 L 466.429688 423.851562 L 466.429688 155.484375"/><path fill="#81A4C1" d="M 837.503906 217.28125 L 837.503906 121.871094 L 832.824219 121.871094 L 832.824219 82.214844 L 819.789062 82.214844 L 819.789062 56.25 L 780.839844 56.25 L 780.839844 82.214844 L 767.808594 82.214844 L 767.808594 121.871094 L 763.078125 121.871094 L 763.078125 217.28125 L 757.792969 217.28125 L 757.792969 423.851562 L 842.835938 423.851562 L 842.835938 217.28125 L 837.503906 217.28125"/><path fill="#81A4C1" d="M 1023.289062 245.308594 L 1023.289062 162.882812 L 1019.316406 162.882812 L 1019.316406 128.5625 L 1008.144531 128.5625 L 1008.144531 106.121094 L 974.78125 106.121094 L 974.78125 128.5625 L 963.609375 128.5625 L 963.609375 162.882812 L 959.582031 162.882812 L 959.582031 245.308594 L 955.054688 245.308594 L 955.054688 423.851562 L 1027.871094 423.851562 L 1027.871094 245.308594 L 1023.289062 245.308594"/><path fill="#81A4C1" d="M 650.203125 185.226562 C 647.488281 182.105469 643.8125 178.785156 638.933594 175.261719 C 634.554688 172.191406 629.269531 168.972656 622.78125 165.648438 L 622.730469 140.539062 L 621.371094 108.988281 C 621.371094 108.988281 621.421875 108.183594 620.414062 108.183594 C 619.410156 108.183594 619.457031 108.988281 619.457031 108.988281 L 618.101562 140.539062 L 618.050781 165.648438 C 611.558594 168.972656 606.273438 172.191406 601.894531 175.261719 C 597.015625 178.785156 593.339844 182.105469 590.625 185.226562 C 577.441406 200.269531 586.347656 210.585938 586.347656 210.585938 L 586.347656 423.851562 L 654.484375 423.851562 L 654.484375 210.585938 C 654.484375 210.585938 663.390625 200.269531 650.203125 185.226562"/><path fill="#81A4C1" d="M 890.390625 276.660156 L 882.1875 276.660156 L 882.1875 224.125 L 890.390625 224.125 Z M 890.390625 342.328125 L 882.1875 342.328125 L 882.1875 289.792969 L 890.390625 289.792969 Z M 890.390625 378.007812 L 882.1875 378.007812 L 882.1875 355.464844 L 890.390625 355.464844 Z M 918.066406 306.550781 L 918.066406 155.738281 L 890.390625 155.738281 L 890.390625 210.988281 L 882.1875 210.988281 L 882.1875 155.738281 L 854.5625 155.738281 L 854.5625 306.550781 C 854.5625 306.550781 856.925781 380.824219 810.480469 395.671875 L 810.480469 423.851562 L 882.1875 423.851562 L 882.1875 385.152344 L 890.390625 385.152344 L 890.390625 423.851562 L 962.097656 423.851562 L 962.097656 395.671875 C 915.652344 380.824219 918.066406 306.550781 918.066406 306.550781"/><path fill="#81A4C1" d="M 285.523438 216.222656 L 285.019531 216.222656 L 285.019531 214.511719 L 285.523438 214.511719 Z M 285.523438 234.441406 L 285.019531 234.441406 L 285.019531 232.730469 L 285.523438 232.730469 Z M 307.664062 423.851562 L 300.921875 340.214844 L 303.488281 331.761719 C 303.488281 331.761719 303.789062 330.855469 303.789062 329.445312 L 303.789062 327.132812 C 303.789062 327.132812 303.941406 326.425781 303.335938 326.425781 L 299.816406 326.425781 L 296.847656 290.246094 L 298.757812 284.007812 C 298.757812 284.007812 299.011719 283.300781 299.011719 282.296875 L 299.011719 280.535156 C 299.011719 280.535156 299.109375 280.03125 298.65625 280.03125 L 296.042969 280.03125 L 293.828125 252.605469 L 295.136719 248.277344 C 295.136719 248.277344 295.335938 247.773438 295.335938 247.019531 L 295.335938 245.761719 C 295.335938 245.761719 295.386719 245.359375 295.035156 245.359375 L 293.222656 245.359375 L 291.664062 229.257812 C 291.664062 229.257812 292.667969 228.703125 292.667969 226.890625 L 292.667969 225.933594 C 292.667969 225.933594 292.71875 225.683594 292.46875 225.683594 L 291.3125 225.683594 L 290.152344 213.65625 C 290.152344 213.65625 290.957031 213.203125 290.957031 211.695312 L 290.957031 210.789062 C 290.957031 210.789062 291.058594 210.082031 290.40625 210.082031 L 286.480469 210.082031 C 286.429688 209.730469 286.328125 209.328125 286.078125 209.179688 C 285.574219 208.925781 285.925781 205.707031 285.273438 205.707031 C 284.617188 205.707031 284.96875 208.925781 284.46875 209.179688 C 284.164062 209.328125 284.066406 209.730469 284.066406 210.082031 L 280.140625 210.082031 C 279.484375 210.082031 279.535156 210.789062 279.535156 210.789062 L 279.535156 211.695312 C 279.535156 213.203125 280.339844 213.65625 280.339844 213.65625 L 279.234375 225.683594 L 278.027344 225.683594 C 277.824219 225.683594 277.875 225.933594 277.875 225.933594 L 277.875 226.890625 C 277.875 228.703125 278.882812 229.257812 278.882812 229.257812 L 277.320312 245.359375 L 275.460938 245.359375 C 275.15625 245.359375 275.207031 245.761719 275.207031 245.761719 L 275.207031 247.019531 C 275.207031 247.773438 275.410156 248.277344 275.410156 248.277344 L 276.71875 252.605469 L 274.503906 280.03125 L 271.886719 280.03125 C 271.433594 280.03125 271.535156 280.535156 271.535156 280.535156 L 271.535156 282.296875 C 271.535156 283.300781 271.734375 284.007812 271.734375 284.007812 L 273.648438 290.246094 L 270.730469 326.425781 L 267.207031 326.425781 C 266.601562 326.425781 266.703125 327.132812 266.703125 327.132812 L 266.703125 329.445312 C 266.703125 330.855469 267.054688 331.761719 267.054688 331.761719 L 269.621094 340.214844 L 262.878906 423.851562 L 307.664062 423.851562"/><path fill="#81A4C1" d="M 540.402344 127.457031 L 542.515625 131.480469 L 540.402344 135.558594 Z M 540.402344 115.480469 L 542.515625 119.605469 L 540.402344 123.730469 Z M 540.402344 103.199219 L 542.566406 107.578125 L 540.402344 111.753906 Z M 540.402344 92.632812 L 542.515625 96.304688 L 540.402344 99.980469 Z M 545.335938 91.476562 L 542.96875 95.550781 L 540.65625 91.476562 Z M 541.410156 83.625 L 542.667969 85.539062 L 541.410156 87.347656 Z M 541.410156 76.226562 L 542.617188 78.59375 L 541.410156 81.210938 Z M 544.378906 74.917969 L 542.96875 77.890625 L 541.410156 74.917969 Z M 541.410156 67.976562 L 542.667969 70.640625 L 541.410156 72.957031 Z M 541.410156 60.628906 L 542.617188 62.742188 L 541.410156 65.257812 Z M 544.175781 59.621094 L 542.96875 62.085938 L 541.511719 59.621094 Z M 542.417969 56.402344 L 542.96875 55.394531 L 543.523438 56.652344 L 542.417969 56.652344 Z M 542.417969 54.1875 L 542.667969 54.839844 L 542.417969 55.34375 Z M 542.417969 48.046875 L 542.71875 49.15625 L 542.417969 50.515625 Z M 542.417969 45.683594 L 543.523438 45.683594 L 542.96875 48.097656 L 542.417969 46.136719 Z M 542.417969 44.675781 L 542.96875 42.714844 L 543.523438 45.128906 L 542.417969 45.128906 Z M 542.417969 40.296875 L 542.71875 41.65625 L 542.417969 42.765625 Z M 542.417969 34.511719 L 542.71875 35.316406 L 542.417969 36.222656 Z M 542.417969 33.050781 L 543.472656 33.050781 L 542.96875 34.511719 L 542.417969 33.101562 Z M 542.464844 37.632812 L 543.019531 36.019531 L 543.574219 37.429688 L 543.574219 37.632812 Z M 543.574219 40.550781 L 543.574219 43.015625 L 543.273438 41.65625 Z M 543.019531 40.601562 L 542.417969 38.132812 L 543.574219 38.132812 L 543.574219 38.585938 Z M 543.273438 49.15625 L 543.574219 47.796875 L 543.574219 50.261719 Z M 542.417969 52.628906 L 543.019531 50.210938 L 543.574219 52.175781 L 543.574219 52.628906 Z M 543.574219 54.289062 L 543.574219 55.496094 L 543.273438 54.839844 Z M 543.019531 54.238281 L 542.515625 53.179688 L 543.574219 53.179688 L 543.574219 53.230469 Z M 543.574219 34.410156 L 543.574219 36.019531 L 543.273438 35.265625 Z M 541.5625 66.265625 L 543.019531 63.394531 L 544.578125 66.0625 L 544.578125 66.265625 Z M 543.019531 69.988281 L 541.5625 66.867188 L 544.578125 66.867188 L 544.578125 67.121094 Z M 544.378906 74.265625 L 541.410156 74.265625 L 542.96875 71.347656 Z M 543.371094 70.691406 L 544.578125 68.429688 L 544.578125 73.257812 Z M 543.320312 78.542969 L 544.578125 75.875 L 544.578125 80.957031 Z M 541.5625 82.316406 L 542.96875 79.296875 L 544.578125 82.316406 Z M 543.421875 85.539062 L 544.578125 83.878906 L 544.578125 87.25 Z M 541.660156 82.921875 L 544.53125 82.921875 L 543.019531 84.984375 Z M 544.480469 88.253906 L 541.511719 88.253906 L 543.019531 86.089844 Z M 544.578125 60.277344 L 544.578125 64.804688 L 543.371094 62.742188 Z M 545.535156 99.980469 L 543.421875 96.304688 L 545.535156 92.632812 Z M 545.234375 136.613281 L 540.753906 136.613281 L 542.96875 132.335938 Z M 545.433594 125.996094 L 542.96875 130.675781 L 540.554688 125.996094 Z M 545.433594 125.242188 L 540.554688 125.242188 L 542.96875 120.460938 Z M 545.433594 114.019531 L 542.96875 118.75 L 540.554688 114.019531 Z M 545.433594 113.265625 L 540.554688 113.265625 L 543.019531 108.433594 Z M 545.535156 111.703125 L 543.472656 107.578125 L 545.535156 103.503906 Z M 543.421875 119.605469 L 545.535156 115.480469 L 545.535156 123.730469 Z M 543.421875 131.480469 L 545.535156 127.457031 L 545.535156 135.558594 Z M 540.554688 101.289062 L 542.96875 97.113281 L 545.386719 101.289062 Z M 545.433594 102.042969 L 543.019531 106.671875 L 540.707031 102.042969 Z M 562.542969 143.808594 C 562.496094 143.105469 561.941406 140.386719 559.074219 140.386719 L 551.726562 140.386719 C 551.675781 139.53125 551.171875 136.613281 548.152344 136.613281 L 546.59375 136.613281 L 546.59375 90.972656 C 546.59375 90.871094 546.59375 90.820312 546.542969 90.769531 L 545.636719 88.65625 L 545.636719 58.917969 C 545.636719 58.816406 545.585938 58.765625 545.535156 58.664062 L 544.628906 57.054688 L 544.628906 32.550781 C 544.628906 32.246094 544.378906 31.996094 544.078125 31.996094 L 543.472656 31.996094 L 543.222656 14.734375 C 543.222656 14.585938 543.121094 14.484375 542.96875 14.484375 C 542.867188 14.484375 542.769531 14.585938 542.769531 14.734375 L 542.515625 31.996094 L 541.863281 31.996094 C 541.5625 31.996094 541.359375 32.246094 541.359375 32.550781 L 541.359375 57.054688 L 540.402344 58.664062 C 540.351562 58.765625 540.351562 58.816406 540.351562 58.917969 L 540.351562 88.65625 L 539.398438 90.769531 C 539.398438 90.871094 539.347656 90.921875 539.347656 90.972656 L 539.347656 136.613281 L 537.785156 136.613281 C 534.765625 136.613281 534.3125 139.53125 534.214844 140.386719 L 526.867188 140.386719 C 524 140.386719 523.496094 143.105469 523.394531 143.808594 C 519.320312 145.421875 519.519531 147.382812 519.519531 147.484375 L 519.519531 148.84375 C 519.519531 150.199219 520.324219 150.90625 520.324219 150.90625 L 526.3125 156.039062 C 535.421875 164.292969 536.832031 172.441406 536.832031 172.492188 L 527.519531 423.546875 C 527.519531 423.648438 527.570312 423.699219 527.621094 423.75 C 527.671875 423.800781 527.722656 423.851562 527.773438 423.851562 L 558.167969 423.851562 C 558.265625 423.851562 558.316406 423.800781 558.367188 423.75 C 558.417969 423.699219 558.417969 423.648438 558.417969 423.546875 L 549.160156 172.542969 C 549.160156 172.441406 550.566406 164.292969 559.675781 156.039062 L 565.613281 150.90625 C 565.664062 150.90625 566.46875 150.199219 566.46875 148.84375 L 566.46875 147.484375 C 566.46875 147.382812 566.621094 145.421875 562.542969 143.808594"/><path fill="#81A4C1" d="M 699.519531 256.328125 L 699.519531 261.007812 C 686.136719 259.699219 674.410156 259.398438 670.132812 259.347656 L 670.132812 254.617188 C 674.410156 254.71875 686.136719 255.019531 699.519531 256.328125 Z M 745.566406 202.382812 L 745.714844 207.214844 C 729.007812 191.816406 702.085938 186.128906 684.828125 184.015625 L 683.316406 179.1875 C 700.425781 181.148438 728.304688 186.683594 745.566406 202.382812 Z M 746.167969 218.285156 C 731.121094 204.902344 706.414062 199.414062 688.902344 197.101562 L 687.394531 192.269531 C 704.90625 194.433594 730.519531 199.816406 745.96875 213.457031 Z M 746.570312 229.308594 C 733.136719 217.78125 710.441406 212.550781 692.929688 210.234375 L 691.417969 205.355469 C 709.03125 207.566406 732.53125 212.75 746.421875 224.527344 Z M 747.023438 240.378906 C 734.945312 230.464844 714.164062 225.632812 697.003906 223.269531 L 695.496094 218.386719 C 712.855469 220.652344 734.394531 225.433594 746.824219 235.546875 Z M 747.425781 251.449219 C 736.707031 242.996094 717.6875 238.566406 701.03125 236.300781 L 699.519531 231.421875 C 716.429688 233.632812 736.15625 238.011719 747.226562 246.617188 Z M 747.828125 262.46875 C 738.316406 255.324219 721.058594 251.398438 705.054688 249.234375 L 703.546875 244.351562 C 719.851562 246.464844 737.765625 250.390625 747.679688 257.636719 Z M 748.28125 273.488281 C 739.828125 267.601562 724.226562 264.128906 709.03125 262.117188 L 707.519531 257.234375 C 723.070312 259.199219 739.324219 262.621094 748.082031 268.707031 Z M 748.683594 284.558594 C 741.289062 279.679688 727.296875 276.710938 713.007812 274.898438 L 711.496094 270.015625 C 726.191406 271.828125 740.785156 274.796875 748.535156 279.730469 Z M 749.136719 295.582031 C 742.695312 291.707031 730.214844 289.238281 716.980469 287.628906 L 715.421875 282.75 C 729.109375 284.308594 742.191406 286.824219 748.9375 290.75 Z M 749.539062 306.550781 C 744.003906 303.582031 733.035156 301.570312 720.855469 300.261719 L 719.347656 295.378906 C 731.976562 296.6875 743.550781 298.699219 749.339844 301.769531 Z M 749.992188 317.570312 C 745.261719 315.355469 735.75 313.847656 724.730469 312.738281 L 723.222656 307.910156 C 734.695312 308.964844 744.808594 310.527344 749.792969 312.789062 Z M 750.394531 328.589844 C 746.519531 327.03125 738.367188 325.925781 728.605469 325.167969 L 727.097656 320.339844 C 737.3125 321.09375 746.015625 322.199219 750.195312 323.761719 Z M 750.796875 339.511719 C 747.628906 338.605469 740.835938 337.902344 732.378906 337.398438 L 730.871094 332.566406 C 739.878906 333.070312 747.226562 333.773438 750.648438 334.730469 Z M 751.25 350.429688 C 748.734375 350.027344 743.25 349.726562 736.15625 349.476562 L 734.644531 344.695312 C 742.292969 344.945312 748.28125 345.246094 751.050781 345.699219 Z M 751.652344 361.351562 L 739.828125 361.351562 L 738.367188 356.621094 L 751.453125 356.621094 Z M 710.085938 311.632812 C 692.675781 310.578125 675.515625 310.375 670.132812 310.324219 L 670.132812 305.59375 C 675.515625 305.644531 692.675781 305.847656 710.085938 306.902344 Z M 670.132812 292.863281 C 673.050781 292.914062 679.492188 293.015625 687.542969 293.265625 L 687.542969 297.996094 C 679.492188 297.695312 673.050781 297.59375 670.132812 297.59375 Z M 670.132812 280.132812 C 674.863281 280.183594 688.550781 280.433594 703.496094 281.640625 L 703.496094 286.320312 C 688.550781 285.113281 674.863281 284.863281 670.132812 284.8125 Z M 670.132812 267.398438 C 673 267.398438 679.089844 267.550781 686.839844 267.953125 L 686.839844 272.632812 C 679.089844 272.230469 673 272.128906 670.132812 272.082031 Z M 668.421875 259.296875 L 668.421875 423.851562 L 755.125 423.851562 L 752.660156 360.195312 L 752.660156 361.351562 L 752.457031 356.621094 L 752.507812 356.621094 L 752.308594 350.683594 C 752.257812 350.683594 752.257812 350.683594 752.257812 350.683594 L 752.054688 345.902344 C 752.054688 345.902344 752.105469 345.902344 752.105469 345.902344 L 751.855469 339.863281 C 751.855469 339.863281 751.855469 339.863281 751.804688 339.863281 L 751.652344 335.082031 L 751.453125 329.042969 L 751.453125 328.992188 C 751.453125 328.992188 751.402344 328.992188 751.402344 328.992188 L 751.25 324.164062 C 751.25 324.214844 751.25 324.214844 751.25 324.214844 L 751 318.125 L 750.796875 313.292969 C 750.796875 313.292969 750.796875 313.292969 750.847656 313.292969 L 750.597656 307.203125 C 750.597656 307.203125 750.597656 307.15625 750.597656 307.15625 L 750.394531 302.324219 C 750.394531 302.324219 750.394531 302.375 750.394531 302.375 L 750.195312 296.234375 C 750.144531 296.234375 750.144531 296.234375 750.144531 296.234375 L 749.941406 291.402344 C 749.992188 291.402344 749.992188 291.402344 749.992188 291.402344 L 749.742188 285.265625 L 749.539062 280.433594 L 749.339844 274.292969 L 749.339844 274.242188 C 749.339844 274.242188 749.289062 274.242188 749.289062 274.242188 L 749.136719 269.414062 L 748.886719 263.273438 L 748.683594 258.441406 L 748.484375 252.253906 C 748.433594 252.253906 748.433594 252.253906 748.433594 252.253906 L 748.28125 247.421875 L 748.03125 241.234375 L 747.828125 236.402344 L 747.628906 230.210938 L 747.425781 225.382812 L 747.175781 219.140625 L 746.972656 214.3125 L 746.773438 208.121094 L 746.570312 203.289062 L 746.570312 202.738281 C 746.570312 202.738281 743.902344 176.871094 680.75 170.984375 L 668.269531 130.675781 L 668.421875 170.128906 L 668.421875 259.296875"/><path fill="#1C2B3B" d="M 548.40625 370.15625 C 548.40625 370.15625 530.84375 395.117188 525.808594 410.917969 L 525.808594 422.59375 L 280.289062 423.851562 L 280.140625 410.917969 C 275.105469 395.117188 257.496094 370.15625 257.496094 370.15625 C 257.496094 370.15625 275.105469 372.621094 290.101562 377.203125 C 292.570312 369.101562 300.972656 346.355469 323.367188 321.648438 C 323.417969 321.597656 323.417969 321.597656 323.417969 321.597656 C 331.417969 312.386719 341.582031 304.6875 354.515625 299.957031 C 354.515625 299.957031 355.21875 304.285156 356.125 311.179688 C 356.125 311.179688 374.292969 282.898438 394.421875 271.476562 C 394.320312 271.777344 390.34375 283.402344 386.871094 296.636719 C 387.425781 294.875 393.765625 275.148438 402.976562 270.167969 C 412.132812 275.148438 418.472656 294.824219 419.078125 296.636719 C 415.554688 283.402344 411.578125 271.777344 411.480469 271.476562 C 411.53125 271.476562 411.578125 271.476562 411.578125 271.527344 C 431.65625 282.949219 449.773438 311.179688 449.773438 311.179688 C 450.730469 304.285156 451.433594 299.957031 451.433594 299.957031 C 464.316406 304.6875 474.480469 312.386719 482.484375 321.597656 C 482.535156 321.648438 482.582031 321.648438 482.582031 321.699219 C 504.976562 346.355469 513.332031 369.152344 515.796875 377.203125 C 530.792969 372.621094 548.40625 370.15625 548.40625 370.15625"/><path fill="#1C2B3B" d="M 1220.351562 280.636719 L 1220.351562 281.441406 L 1219.34375 282.09375 L 1219.34375 284.058594 L 1217.128906 284.058594 L 1217.128906 292.410156 L 1217.984375 292.410156 L 1217.984375 292.863281 L 1217.28125 294.625 L 1217.28125 329.09375 L 1218.4375 329.09375 L 1218.4375 329.949219 L 1217.632812 331.257812 L 1217.632812 349.878906 L 1219.34375 349.878906 L 1219.34375 351.035156 L 1218.4375 353.398438 L 1218.4375 410.515625 L 1219.089844 412.425781 L 1219.089844 423.851562 L 1165.246094 423.851562 L 1165.246094 332.617188 C 1165.246094 332.617188 1165.449219 330.65625 1164.339844 330 L 1164.339844 327.886719 L 1165.800781 327.886719 C 1165.800781 327.886719 1164.59375 304.234375 1142.402344 304.234375 C 1141.898438 304.234375 1141.445312 304.285156 1140.941406 304.285156 C 1120.160156 305.292969 1119 327.886719 1119 327.886719 L 1120.460938 327.886719 L 1120.460938 330 C 1119.355469 330.65625 1119.554688 332.617188 1119.554688 332.617188 L 1119.554688 423.851562 L 1065.710938 423.851562 L 1065.710938 412.425781 L 1066.367188 410.515625 L 1066.367188 353.398438 L 1065.460938 351.035156 L 1065.460938 349.878906 L 1067.171875 349.878906 L 1067.171875 331.257812 L 1066.367188 329.949219 L 1066.367188 329.09375 L 1067.472656 329.09375 L 1067.472656 294.625 L 1066.816406 292.863281 L 1066.816406 292.410156 L 1067.671875 292.410156 L 1067.671875 284.058594 L 1065.460938 284.058594 L 1065.460938 282.09375 L 1064.453125 281.441406 L 1064.453125 280.636719 L 1072.605469 280.636719 L 1072.605469 265.1875 L 1075.925781 265.1875 L 1075.925781 254.871094 L 1088.355469 254.871094 L 1088.355469 239.773438 L 1090.117188 239.773438 L 1090.117188 232.023438 L 1114.976562 232.023438 L 1114.976562 228.652344 L 1125.84375 228.652344 C 1125.84375 228.652344 1127.960938 226.640625 1134.449219 226.640625 C 1134.449219 226.640625 1135.960938 223.367188 1142.402344 223.367188 C 1148.84375 223.367188 1150.351562 226.640625 1150.351562 226.640625 C 1156.792969 226.640625 1159.007812 228.652344 1159.007812 228.652344 L 1169.828125 228.652344 L 1169.828125 232.023438 L 1194.636719 232.023438 L 1194.636719 239.773438 L 1196.398438 239.773438 L 1196.398438 254.871094 L 1208.875 254.871094 L 1208.875 265.1875 L 1212.199219 265.1875 L 1212.199219 280.636719 L 1220.351562 280.636719"/><path fill="#1C2B3B" d="M 1092.28125 381.882812 L 1092.28125 372.171875 L 1091.222656 372.171875 L 1091.222656 373.175781 L 1090.21875 373.175781 L 1090.21875 367.84375 L 1088.960938 367.84375 L 1088.960938 368.445312 L 1086.796875 368.445312 L 1086.796875 363.714844 L 1088.609375 363.714844 L 1088.609375 362.558594 L 1087.449219 360.394531 L 1086.089844 360.394531 L 1086.089844 353.652344 L 1086.796875 352.796875 L 1086.796875 351.789062 L 1085.941406 350.429688 L 1083.828125 350.429688 L 1083.828125 342.128906 L 1083.222656 342.128906 L 1083.222656 334.730469 L 1083.828125 334.730469 L 1083.828125 333.925781 L 1082.570312 332.414062 L 1082.570312 331.15625 L 1082.769531 330.957031 L 1082.621094 330.753906 L 1082.621094 330.453125 L 1082.667969 330.300781 L 1082.570312 330.300781 C 1082.570312 330.300781 1082.167969 330.152344 1082.167969 329.800781 C 1082.167969 329.800781 1082.167969 329.648438 1082.066406 329.597656 L 1082.066406 328.339844 C 1082.066406 328.339844 1082.214844 325.671875 1081.210938 324.714844 C 1081.210938 324.714844 1081.359375 324.414062 1081.007812 324.113281 C 1080.605469 323.8125 1080.40625 323.660156 1080.40625 323.507812 C 1080.40625 323.507812 1080.503906 323.410156 1080.40625 323.257812 C 1080.40625 323.257812 1080.457031 323.15625 1080.355469 323.105469 C 1080.355469 323.105469 1080.40625 323.003906 1080.355469 322.957031 C 1080.355469 322.957031 1080.355469 322.855469 1080.304688 322.804688 L 1080.304688 322.601562 C 1080.355469 322.601562 1080.40625 322.554688 1080.40625 322.453125 C 1080.40625 322.402344 1080.355469 322.300781 1080.304688 322.300781 C 1080.304688 322.300781 1080.304688 322.300781 1080.253906 322.300781 C 1080.203125 322.300781 1080.152344 322.402344 1080.152344 322.453125 C 1080.152344 322.554688 1080.203125 322.601562 1080.253906 322.601562 L 1080.253906 322.804688 C 1080.203125 322.855469 1080.203125 322.957031 1080.203125 322.957031 C 1080.152344 323.003906 1080.152344 323.105469 1080.152344 323.105469 C 1080.101562 323.15625 1080.152344 323.257812 1080.152344 323.257812 C 1080.054688 323.410156 1080.101562 323.507812 1080.101562 323.507812 C 1080.101562 323.660156 1079.953125 323.8125 1079.550781 324.113281 C 1079.199219 324.414062 1079.347656 324.714844 1079.347656 324.714844 C 1078.34375 325.671875 1078.492188 328.339844 1078.492188 328.339844 L 1078.492188 329.597656 C 1078.441406 329.648438 1078.390625 329.800781 1078.390625 329.800781 C 1078.390625 330.152344 1077.9375 330.300781 1077.9375 330.300781 L 1077.890625 330.300781 L 1077.9375 330.453125 L 1077.9375 330.753906 L 1077.789062 330.957031 L 1077.9375 331.15625 L 1077.9375 332.414062 L 1077.285156 332.414062 C 1077.132812 331.8125 1076.78125 331.058594 1075.824219 330.351562 C 1073.460938 328.492188 1072.253906 327.535156 1072.253906 326.527344 C 1072.253906 326.527344 1072.65625 325.722656 1072.101562 324.96875 C 1072.101562 324.96875 1072.355469 324.414062 1071.902344 323.910156 C 1071.902344 323.910156 1072.050781 323.308594 1071.75 323.003906 C 1071.75 323.003906 1071.851562 322.402344 1071.449219 322.148438 L 1071.449219 320.84375 C 1071.851562 320.792969 1072.152344 320.339844 1072.152344 319.835938 C 1072.152344 319.382812 1071.851562 318.929688 1071.398438 318.878906 C 1071.398438 318.777344 1071.398438 318.726562 1071.296875 318.726562 C 1071.195312 318.726562 1071.144531 318.777344 1071.144531 318.878906 C 1070.742188 318.929688 1070.441406 319.382812 1070.441406 319.835938 C 1070.441406 320.339844 1070.742188 320.792969 1071.144531 320.84375 L 1071.144531 322.148438 C 1070.742188 322.402344 1070.792969 323.003906 1070.792969 323.003906 C 1070.492188 323.308594 1070.644531 323.910156 1070.644531 323.910156 C 1070.238281 324.414062 1070.441406 324.96875 1070.441406 324.96875 C 1069.886719 325.722656 1070.339844 326.527344 1070.339844 326.527344 C 1070.339844 327.535156 1069.132812 328.492188 1066.71875 330.351562 C 1064.300781 332.214844 1065.460938 334.125 1065.460938 334.125 C 1064.554688 334.980469 1063.847656 336.039062 1063.195312 337.195312 C 1062.945312 336.039062 1062.289062 334.578125 1060.878906 333.472656 L 1060.878906 326.527344 L 1062.1875 325.320312 L 1061.082031 324.011719 L 1061.082031 321.898438 L 1061.535156 321.144531 L 1060.878906 321.144531 C 1060.878906 321.144531 1058.113281 320.085938 1058.113281 317.871094 C 1058.113281 317.871094 1058.113281 316.867188 1057.710938 316.613281 L 1057.710938 308.613281 C 1057.710938 308.613281 1058.464844 291.554688 1052.023438 285.414062 C 1052.023438 285.414062 1053.179688 283.503906 1050.765625 281.640625 C 1048.402344 279.78125 1047.140625 278.824219 1047.140625 277.816406 C 1047.140625 277.816406 1047.59375 277.011719 1047.042969 276.257812 C 1047.042969 276.257812 1047.242188 275.703125 1046.839844 275.199219 C 1046.839844 275.199219 1046.992188 274.597656 1046.691406 274.292969 C 1046.691406 274.292969 1046.738281 273.691406 1046.335938 273.4375 L 1046.335938 272.128906 C 1046.789062 272.082031 1047.09375 271.675781 1047.09375 271.175781 C 1047.09375 270.671875 1046.789062 270.21875 1046.335938 270.167969 C 1046.335938 270.066406 1046.285156 270.015625 1046.238281 270.015625 C 1046.136719 270.015625 1046.085938 270.066406 1046.085938 270.167969 C 1045.632812 270.21875 1045.382812 270.671875 1045.382812 271.175781 C 1045.382812 271.675781 1045.632812 272.082031 1046.085938 272.128906 L 1046.085938 273.4375 C 1045.683594 273.691406 1045.734375 274.292969 1045.734375 274.292969 C 1045.429688 274.597656 1045.582031 275.199219 1045.582031 275.199219 C 1045.179688 275.703125 1045.382812 276.257812 1045.382812 276.257812 C 1044.828125 277.011719 1045.28125 277.816406 1045.28125 277.816406 C 1045.28125 278.824219 1044.074219 279.78125 1041.65625 281.640625 C 1039.242188 283.503906 1040.398438 285.414062 1040.398438 285.414062 C 1034.007812 291.554688 1034.714844 308.613281 1034.714844 308.613281 L 1034.714844 316.613281 C 1034.308594 316.867188 1034.308594 317.871094 1034.308594 317.871094 C 1034.308594 320.085938 1031.542969 321.144531 1031.542969 321.144531 L 1030.886719 321.144531 L 1031.339844 321.898438 L 1031.339844 324.011719 L 1030.234375 325.320312 L 1031.542969 326.527344 L 1031.542969 334.429688 L 1029.53125 334.429688 L 1029.53125 334.226562 C 1029.53125 334.226562 1030.234375 334.125 1030.234375 332.820312 C 1030.234375 331.511719 1027.71875 330.90625 1027.71875 329.195312 C 1027.71875 327.433594 1026.511719 328.289062 1026.511719 327.234375 C 1026.511719 326.175781 1027.164062 326.832031 1027.164062 325.824219 C 1027.164062 324.765625 1026.410156 324.617188 1025.855469 324.617188 C 1025.304688 324.617188 1024.597656 324.765625 1024.597656 325.824219 C 1024.597656 326.832031 1025.253906 326.175781 1025.253906 327.234375 C 1025.253906 328.289062 1024.042969 327.433594 1024.042969 329.195312 C 1024.042969 330.90625 1021.476562 331.511719 1021.476562 332.820312 C 1021.476562 334.125 1022.183594 334.226562 1022.183594 334.226562 L 1022.183594 334.429688 L 1020.269531 334.429688 L 1020.269531 321.394531 L 1022.332031 319.382812 L 1020.574219 317.269531 L 1020.574219 313.746094 L 1021.328125 312.488281 L 1020.269531 312.488281 C 1020.269531 312.488281 1015.691406 310.726562 1015.691406 307.105469 C 1015.691406 307.105469 1015.640625 305.394531 1014.988281 305.039062 L 1014.988281 291.757812 C 1014.988281 291.757812 1016.195312 263.574219 1005.628906 253.460938 C 1005.628906 253.460938 1007.488281 250.339844 1003.511719 247.273438 C 999.589844 244.203125 997.574219 242.542969 997.574219 240.878906 C 997.574219 240.878906 998.28125 239.574219 997.375 238.363281 C 997.375 238.363281 997.726562 237.359375 997.023438 236.601562 C 997.023438 236.601562 997.273438 235.597656 996.769531 235.09375 C 996.769531 235.09375 996.871094 234.085938 996.265625 233.734375 L 996.265625 231.519531 C 996.921875 231.421875 997.425781 230.714844 997.425781 229.910156 C 997.425781 229.054688 996.921875 228.402344 996.21875 228.25 C 996.21875 228.148438 996.167969 228 996.015625 228 C 995.8125 228 995.765625 228.148438 995.765625 228.25 C 995.058594 228.402344 994.554688 229.054688 994.554688 229.910156 C 994.554688 230.714844 995.058594 231.421875 995.765625 231.519531 L 995.765625 233.734375 C 995.109375 234.085938 995.210938 235.09375 995.210938 235.09375 C 994.707031 235.597656 994.957031 236.601562 994.957031 236.601562 C 994.253906 237.359375 994.65625 238.363281 994.65625 238.363281 C 993.699219 239.574219 994.40625 240.878906 994.40625 240.878906 C 994.40625 242.542969 992.441406 244.203125 988.46875 247.273438 C 984.492188 250.339844 986.355469 253.460938 986.355469 253.460938 C 975.785156 263.574219 976.992188 291.757812 976.992188 291.757812 L 976.992188 305.039062 C 976.390625 305.394531 976.289062 307.105469 976.289062 307.105469 C 976.289062 310.726562 971.710938 312.488281 971.710938 312.488281 L 970.652344 312.488281 L 971.410156 313.746094 L 971.410156 317.269531 L 969.648438 319.382812 L 971.710938 321.394531 L 971.710938 334.429688 L 969.796875 334.429688 L 969.796875 334.226562 C 969.796875 334.226562 970.503906 334.125 970.503906 332.820312 C 970.503906 331.511719 967.9375 330.90625 967.9375 329.195312 C 967.9375 327.433594 966.726562 328.289062 966.726562 327.234375 C 966.726562 326.175781 967.382812 326.832031 967.382812 325.824219 C 967.382812 324.765625 966.679688 324.617188 966.125 324.617188 C 965.570312 324.617188 964.816406 324.765625 964.816406 325.824219 C 964.816406 326.832031 965.46875 326.175781 965.46875 327.234375 C 965.46875 328.289062 964.3125 327.433594 964.3125 329.195312 C 964.3125 330.90625 961.746094 331.511719 961.746094 332.820312 C 961.746094 334.125 962.449219 334.226562 962.449219 334.226562 L 962.449219 334.429688 L 960.4375 334.429688 L 960.4375 326.527344 L 961.746094 325.320312 L 960.640625 324.011719 L 960.640625 321.898438 L 961.09375 321.144531 L 960.4375 321.144531 C 960.4375 321.144531 957.671875 320.085938 957.671875 317.871094 C 957.671875 317.871094 957.671875 316.867188 957.269531 316.613281 L 957.269531 308.613281 C 957.269531 308.613281 957.972656 291.554688 951.582031 285.414062 C 951.582031 285.414062 952.738281 283.503906 950.324219 281.640625 C 947.957031 279.78125 946.699219 278.824219 946.699219 277.816406 C 946.699219 277.816406 947.152344 277.011719 946.601562 276.257812 C 946.601562 276.257812 946.800781 275.703125 946.398438 275.199219 C 946.398438 275.199219 946.550781 274.597656 946.246094 274.292969 C 946.246094 274.292969 946.296875 273.691406 945.894531 273.4375 L 945.894531 272.128906 C 946.347656 272.082031 946.648438 271.675781 946.648438 271.175781 C 946.648438 270.671875 946.347656 270.21875 945.894531 270.167969 C 945.894531 270.066406 945.84375 270.015625 945.746094 270.015625 C 945.695312 270.015625 945.644531 270.066406 945.644531 270.167969 C 945.191406 270.21875 944.890625 270.671875 944.890625 271.175781 C 944.890625 271.675781 945.191406 272.082031 945.644531 272.128906 L 945.644531 273.4375 C 945.242188 273.691406 945.292969 274.292969 945.292969 274.292969 C 944.988281 274.597656 945.140625 275.199219 945.140625 275.199219 C 944.738281 275.703125 944.9375 276.257812 944.9375 276.257812 C 944.386719 277.011719 944.839844 277.816406 944.839844 277.816406 C 944.839844 278.824219 943.628906 279.78125 941.214844 281.640625 C 938.800781 283.503906 939.957031 285.414062 939.957031 285.414062 C 933.566406 291.554688 934.269531 308.613281 934.269531 308.613281 L 934.269531 316.613281 C 933.867188 316.867188 933.867188 317.871094 933.867188 317.871094 C 933.867188 320.085938 931.101562 321.144531 931.101562 321.144531 L 930.445312 321.144531 L 930.898438 321.898438 L 930.898438 324.011719 L 929.792969 325.320312 L 931.101562 326.527344 L 931.101562 333.472656 C 929.691406 334.578125 929.085938 336.039062 928.785156 337.195312 C 928.132812 336.039062 927.425781 334.980469 926.519531 334.125 C 926.519531 334.125 927.679688 332.214844 925.261719 330.351562 C 922.847656 328.492188 921.640625 327.535156 921.640625 326.527344 C 921.640625 326.527344 922.09375 325.722656 921.539062 324.96875 C 921.539062 324.96875 921.742188 324.414062 921.339844 323.910156 C 921.339844 323.910156 921.488281 323.308594 921.1875 323.003906 C 921.1875 323.003906 921.238281 322.402344 920.835938 322.148438 L 920.835938 320.84375 C 921.238281 320.792969 921.539062 320.339844 921.539062 319.835938 C 921.539062 319.382812 921.238281 318.929688 920.835938 318.878906 C 920.835938 318.777344 920.785156 318.726562 920.683594 318.726562 C 920.582031 318.726562 920.582031 318.777344 920.582031 318.878906 C 920.128906 318.929688 919.828125 319.382812 919.828125 319.835938 C 919.828125 320.339844 920.128906 320.792969 920.53125 320.84375 L 920.53125 322.148438 C 920.179688 322.402344 920.230469 323.003906 920.230469 323.003906 C 919.929688 323.308594 920.082031 323.910156 920.082031 323.910156 C 919.675781 324.414062 919.878906 324.96875 919.878906 324.96875 C 919.324219 325.722656 919.726562 326.527344 919.726562 326.527344 C 919.726562 327.535156 918.519531 328.492188 916.15625 330.351562 C 915.25 331.058594 914.847656 331.8125 914.695312 332.414062 L 914.042969 332.414062 L 914.042969 331.15625 L 914.242188 330.957031 L 914.042969 330.753906 L 914.042969 330.453125 L 914.140625 330.300781 L 914.042969 330.300781 C 914.042969 330.300781 913.589844 330.152344 913.589844 329.800781 C 913.589844 329.800781 913.539062 329.648438 913.488281 329.597656 L 913.488281 328.339844 C 913.488281 328.339844 913.640625 325.671875 912.632812 324.714844 C 912.632812 324.714844 912.785156 324.414062 912.429688 324.113281 C 912.027344 323.8125 911.828125 323.660156 911.828125 323.507812 C 911.828125 323.507812 911.929688 323.410156 911.828125 323.257812 C 911.828125 323.257812 911.878906 323.15625 911.828125 323.105469 C 911.828125 323.105469 911.828125 323.003906 911.777344 322.957031 C 911.777344 322.957031 911.777344 322.855469 911.726562 322.804688 L 911.726562 322.601562 C 911.777344 322.601562 911.828125 322.554688 911.828125 322.453125 C 911.828125 322.402344 911.777344 322.300781 911.726562 322.300781 C 911.675781 322.300781 911.675781 322.300781 911.675781 322.300781 C 911.625 322.300781 911.574219 322.402344 911.574219 322.453125 C 911.574219 322.554688 911.625 322.601562 911.675781 322.601562 L 911.675781 322.804688 C 911.625 322.855469 911.625 322.957031 911.625 322.957031 C 911.574219 323.003906 911.625 323.105469 911.625 323.105469 C 911.527344 323.15625 911.574219 323.257812 911.574219 323.257812 C 911.476562 323.410156 911.574219 323.507812 911.574219 323.507812 C 911.574219 323.660156 911.375 323.8125 910.972656 324.113281 C 910.621094 324.414062 910.820312 324.714844 910.820312 324.714844 C 909.765625 325.671875 909.914062 328.339844 909.914062 328.339844 L 909.914062 329.597656 C 909.863281 329.648438 909.863281 329.800781 909.863281 329.800781 C 909.863281 330.152344 909.410156 330.300781 909.410156 330.300781 L 909.3125 330.300781 L 909.363281 330.453125 L 909.363281 330.753906 L 909.210938 330.957031 L 909.410156 331.15625 L 909.410156 332.414062 L 908.152344 333.925781 L 908.152344 334.730469 L 908.757812 334.730469 L 908.757812 342.128906 L 908.152344 342.128906 L 908.152344 350.429688 L 906.039062 350.429688 L 905.183594 351.789062 L 905.183594 352.796875 L 905.890625 353.652344 L 905.890625 360.394531 L 904.53125 360.394531 L 903.375 362.558594 L 903.375 363.714844 L 905.183594 363.714844 L 905.183594 368.445312 L 903.019531 368.445312 L 903.019531 367.84375 L 901.761719 367.84375 L 901.761719 373.175781 L 900.757812 373.175781 L 900.757812 372.171875 L 899.699219 372.171875 L 899.699219 381.882812 L 901.210938 383.742188 L 901.210938 396.726562 L 899.699219 399.042969 L 899.699219 423.851562 L 1092.28125 423.851562 L 1092.28125 399.042969 L 1090.769531 396.726562 L 1090.769531 383.742188 L 1092.28125 381.882812"/><g clip-path="url(#h)"><path fill="#1C2B3B" d="M 1285.011719 447.652344 L 190.011719 447.652344 C 190.011719 433.460938 201.535156 421.886719 215.777344 421.886719 L 1259.25 421.886719 C 1273.488281 421.886719 1285.011719 433.460938 1285.011719 447.652344"/></g><path fill="#1C2B3B" d="M 575.328125 389.632812 C 575.328125 389.632812 576.03125 388.324219 575.78125 387.265625 C 575.527344 386.261719 575.730469 385.253906 576.433594 384.648438 C 577.085938 384.097656 576.484375 382.4375 577.894531 381.832031 C 579.25 381.175781 578.597656 380.019531 579.957031 380.019531 C 581.316406 379.96875 580.710938 378.410156 582.070312 378.710938 C 583.480469 379.015625 583.175781 377.65625 584.585938 377.65625 C 585.996094 377.65625 585.691406 379.015625 587.050781 378.710938 C 588.410156 378.410156 587.855469 379.96875 589.214844 380.019531 C 590.523438 380.019531 589.871094 381.175781 591.277344 381.832031 C 592.6875 382.4375 592.035156 384.097656 592.738281 384.648438 C 593.390625 385.253906 593.59375 386.261719 593.339844 387.265625 C 593.140625 388.324219 593.792969 389.632812 593.792969 389.632812 L 593.792969 409.507812 L 575.328125 409.507812 Z M 554.644531 201.378906 C 554.644531 201.378906 554.84375 201.226562 554.84375 200.722656 C 554.84375 200.222656 554.796875 198.359375 555.398438 198.359375 C 556.054688 198.359375 556.003906 200.222656 556.003906 200.722656 C 556.003906 201.226562 556.203125 201.378906 556.203125 201.378906 L 556.203125 207.566406 L 554.644531 207.566406 Z M 557.109375 200.925781 C 557.109375 200.925781 557.460938 200.722656 557.460938 200.222656 C 557.460938 199.71875 557.460938 197.753906 558.671875 197.753906 C 559.828125 197.753906 559.828125 199.71875 559.828125 200.222656 C 559.828125 200.722656 560.179688 200.925781 560.179688 200.925781 L 560.179688 207.417969 L 557.109375 207.417969 Z M 562.242188 267.851562 L 562.242188 274.292969 L 559.527344 274.292969 L 559.527344 267.851562 Z M 561.589844 200.925781 C 561.589844 200.925781 561.941406 200.722656 561.941406 200.222656 C 561.941406 199.71875 561.941406 197.753906 563.148438 197.753906 C 564.355469 197.753906 564.304688 199.71875 564.304688 200.222656 C 564.304688 200.722656 564.707031 200.925781 564.707031 200.925781 L 564.707031 207.417969 L 561.589844 207.417969 Z M 565.5625 201.378906 C 565.5625 201.378906 565.765625 201.226562 565.765625 200.722656 C 565.765625 200.222656 565.765625 198.359375 566.371094 198.359375 C 566.972656 198.359375 566.972656 200.222656 566.972656 200.722656 C 566.972656 201.226562 567.175781 201.378906 567.175781 201.378906 L 567.175781 207.566406 L 565.5625 207.566406 Z M 597.871094 389.632812 C 597.871094 389.632812 598.574219 388.324219 598.324219 387.265625 C 598.070312 386.261719 598.273438 385.253906 598.976562 384.648438 C 599.632812 384.097656 599.027344 382.4375 600.4375 381.832031 C 601.796875 381.175781 601.140625 380.019531 602.5 380.019531 C 603.808594 379.96875 603.253906 378.410156 604.613281 378.710938 C 605.972656 379.015625 605.671875 377.65625 607.128906 377.65625 C 608.539062 377.65625 608.238281 379.015625 609.59375 378.710938 C 610.953125 378.410156 610.402344 379.96875 611.710938 380.019531 C 613.066406 380.019531 612.414062 381.175781 613.824219 381.832031 C 615.179688 382.4375 614.578125 384.097656 615.28125 384.648438 C 615.9375 385.253906 616.136719 386.261719 615.886719 387.265625 C 615.683594 388.324219 616.339844 389.632812 616.339844 389.632812 L 616.339844 409.507812 L 597.871094 409.507812 Z M 620.414062 389.632812 C 620.414062 389.632812 621.070312 388.324219 620.867188 387.265625 C 620.617188 386.261719 620.816406 385.253906 621.523438 384.648438 C 622.175781 384.097656 621.570312 382.4375 622.980469 381.832031 C 624.339844 381.175781 623.6875 380.019531 625.042969 380.019531 C 626.351562 379.96875 625.800781 378.410156 627.15625 378.710938 C 628.515625 379.015625 628.214844 377.65625 629.675781 377.65625 C 631.082031 377.65625 630.78125 379.015625 632.140625 378.710938 C 633.5 378.410156 632.945312 379.96875 634.253906 380.019531 C 635.613281 380.019531 634.957031 381.175781 636.367188 381.832031 C 637.726562 382.4375 637.121094 384.097656 637.824219 384.648438 C 638.480469 385.253906 638.679688 386.261719 638.429688 387.265625 C 638.230469 388.324219 638.882812 389.632812 638.882812 389.632812 L 638.882812 409.507812 L 620.414062 409.507812 Z M 642.957031 389.632812 C 642.957031 389.632812 643.613281 388.324219 643.410156 387.265625 C 643.160156 386.261719 643.363281 385.253906 644.015625 384.648438 C 644.71875 384.097656 644.117188 382.4375 645.476562 381.832031 C 646.882812 381.175781 646.230469 380.019531 647.589844 380.019531 C 648.898438 379.96875 648.34375 378.410156 649.703125 378.710938 C 651.0625 379.015625 650.757812 377.65625 652.167969 377.65625 C 653.625 377.65625 653.324219 379.015625 654.683594 378.710938 C 656.042969 378.410156 655.488281 379.96875 656.796875 380.019531 C 658.15625 380.019531 657.5 381.175781 658.859375 381.832031 C 660.269531 382.4375 659.664062 384.097656 660.320312 384.648438 C 661.023438 385.253906 661.226562 386.261719 660.972656 387.265625 C 660.722656 388.324219 661.425781 389.632812 661.425781 389.632812 L 661.425781 409.507812 L 642.957031 409.507812 Z M 665.503906 389.632812 C 665.503906 389.632812 666.15625 388.324219 665.957031 387.265625 C 665.703125 386.261719 665.90625 385.253906 666.558594 384.648438 C 667.265625 384.097656 666.609375 382.4375 668.019531 381.832031 C 669.429688 381.175781 668.773438 380.019531 670.132812 380.019531 C 671.441406 379.96875 670.886719 378.410156 672.246094 378.710938 C 673.605469 379.015625 673.300781 377.65625 674.710938 377.65625 C 676.121094 377.65625 675.871094 379.015625 677.226562 378.710938 C 678.585938 378.410156 678.03125 379.96875 679.339844 380.019531 C 680.699219 380.019531 680.046875 381.175781 681.40625 381.832031 C 682.8125 382.4375 682.210938 384.097656 682.863281 384.648438 C 683.566406 385.253906 683.769531 386.261719 683.519531 387.265625 C 683.265625 388.324219 683.972656 389.632812 683.972656 389.632812 L 683.972656 409.507812 L 665.503906 409.507812 Z M 685.632812 278.167969 C 685.632812 278.167969 685.632812 277.714844 685.480469 277.617188 L 685.480469 273.589844 C 685.480469 273.589844 685.78125 273.289062 685.78125 272.734375 C 685.78125 272.230469 686.234375 272.332031 686.234375 272.332031 C 686.234375 272.332031 686.6875 272.230469 686.6875 272.734375 C 686.6875 273.289062 686.988281 273.589844 686.988281 273.589844 L 686.988281 277.617188 C 686.839844 277.714844 686.789062 278.167969 686.789062 278.167969 Z M 687.894531 273.589844 C 687.894531 273.589844 688.296875 273.289062 688.296875 272.734375 C 688.296875 272.230469 688.851562 272.332031 688.851562 272.332031 C 688.851562 272.332031 689.457031 272.230469 689.457031 272.734375 C 689.457031 273.289062 689.859375 273.589844 689.859375 273.589844 L 689.859375 277.617188 C 689.605469 277.714844 689.605469 278.167969 689.605469 278.167969 L 688.148438 278.167969 C 688.148438 278.167969 688.097656 277.714844 687.894531 277.617188 Z M 690.765625 273.589844 C 690.765625 273.589844 691.066406 273.289062 691.066406 272.734375 C 691.066406 272.230469 691.519531 272.332031 691.519531 272.332031 C 691.519531 272.332031 692.023438 272.230469 692.023438 272.734375 C 692.023438 273.289062 692.273438 273.589844 692.273438 273.589844 L 692.273438 277.617188 C 692.125 277.714844 692.125 278.167969 692.125 278.167969 L 690.964844 278.167969 C 690.964844 278.167969 690.964844 277.714844 690.765625 277.617188 Z M 722.0625 374.585938 C 722.0625 374.585938 723.222656 372.925781 722.820312 371.617188 C 722.417969 370.308594 722.769531 369.101562 723.925781 368.34375 C 725.035156 367.640625 723.976562 365.578125 726.339844 364.773438 C 728.65625 363.96875 727.550781 362.609375 729.8125 362.558594 C 732.078125 362.507812 731.070312 360.546875 733.386719 360.949219 C 735.652344 361.300781 735.148438 359.589844 737.511719 359.589844 C 739.878906 359.589844 739.375 361.300781 741.691406 360.949219 C 743.953125 360.546875 742.949219 362.507812 745.210938 362.558594 C 747.476562 362.609375 746.371094 363.96875 748.683594 364.773438 C 751.050781 365.578125 749.992188 367.640625 751.101562 368.34375 C 752.257812 369.101562 752.609375 370.308594 752.207031 371.617188 C 751.804688 372.925781 752.960938 374.585938 752.960938 374.585938 L 752.960938 399.34375 L 722.0625 399.34375 Z M 782.953125 278.167969 C 782.953125 278.167969 782.902344 277.714844 782.753906 277.617188 L 782.753906 273.589844 C 782.753906 273.589844 783.003906 273.289062 783.003906 272.734375 C 783.003906 272.230469 783.507812 272.332031 783.507812 272.332031 C 783.507812 272.332031 783.960938 272.230469 783.960938 272.734375 C 783.960938 273.289062 784.261719 273.589844 784.261719 273.589844 L 784.261719 277.617188 C 784.0625 277.714844 784.0625 278.167969 784.0625 278.167969 Z M 785.21875 273.589844 C 785.21875 273.589844 785.570312 273.289062 785.570312 272.734375 C 785.570312 272.230469 786.175781 272.332031 786.175781 272.332031 C 786.175781 272.332031 786.777344 272.230469 786.777344 272.734375 C 786.777344 273.289062 787.128906 273.589844 787.128906 273.589844 L 787.128906 277.617188 C 786.929688 277.714844 786.878906 278.167969 786.878906 278.167969 L 785.417969 278.167969 C 785.417969 278.167969 785.417969 277.714844 785.21875 277.617188 Z M 788.035156 273.589844 C 788.035156 273.589844 788.339844 273.289062 788.339844 272.734375 C 788.339844 272.230469 788.789062 272.332031 788.789062 272.332031 C 788.789062 272.332031 789.292969 272.230469 789.292969 272.734375 C 789.292969 273.289062 789.546875 273.589844 789.546875 273.589844 L 789.546875 277.617188 C 789.394531 277.714844 789.394531 278.167969 789.394531 278.167969 L 788.238281 278.167969 C 788.238281 278.167969 788.1875 277.714844 788.035156 277.617188 Z M 791.054688 389.632812 C 791.054688 389.632812 791.761719 388.324219 791.507812 387.265625 C 791.257812 386.261719 791.457031 385.253906 792.164062 384.648438 C 792.816406 384.097656 792.210938 382.4375 793.621094 381.832031 C 794.980469 381.175781 794.328125 380.019531 795.683594 380.019531 C 796.992188 379.96875 796.441406 378.410156 797.796875 378.710938 C 799.15625 379.015625 798.90625 377.65625 800.265625 377.65625 C 801.722656 377.65625 801.421875 379.015625 802.78125 378.710938 C 804.140625 378.410156 803.585938 379.96875 804.894531 380.019531 C 806.253906 380.019531 805.597656 381.175781 807.007812 381.832031 C 808.417969 382.4375 807.761719 384.097656 808.464844 384.648438 C 809.121094 385.253906 809.320312 386.261719 809.070312 387.265625 C 808.871094 388.324219 809.523438 389.632812 809.523438 389.632812 L 809.523438 409.507812 L 791.054688 409.507812 Z M 813.597656 389.632812 C 813.597656 389.632812 814.304688 388.324219 814.050781 387.265625 C 813.800781 386.261719 814.003906 385.253906 814.65625 384.648438 C 815.359375 384.097656 814.757812 382.4375 816.117188 381.832031 C 817.523438 381.175781 816.871094 380.019531 818.230469 380.019531 C 819.539062 379.96875 818.984375 378.410156 820.34375 378.710938 C 821.703125 379.015625 821.449219 377.65625 822.859375 377.65625 C 824.269531 377.65625 823.964844 379.015625 825.324219 378.710938 C 826.683594 378.410156 826.128906 379.96875 827.4375 380.019531 C 828.796875 380.019531 828.140625 381.175781 829.550781 381.832031 C 830.960938 382.4375 830.304688 384.097656 831.011719 384.648438 C 831.664062 385.253906 831.867188 386.261719 831.613281 387.265625 C 831.414062 388.324219 832.066406 389.632812 832.066406 389.632812 L 832.066406 409.507812 L 813.597656 409.507812 Z M 836.144531 389.632812 C 836.144531 389.632812 836.847656 388.324219 836.597656 387.265625 C 836.34375 386.261719 836.546875 385.253906 837.199219 384.648438 C 837.90625 384.097656 837.300781 382.4375 838.660156 381.832031 C 840.070312 381.175781 839.414062 380.019531 840.773438 380.019531 C 842.082031 379.96875 841.527344 378.410156 842.886719 378.710938 C 844.246094 379.015625 843.945312 377.65625 845.351562 377.65625 C 846.8125 377.65625 846.511719 379.015625 847.867188 378.710938 C 849.226562 378.410156 848.671875 379.96875 849.980469 380.019531 C 851.339844 380.019531 850.6875 381.175781 852.09375 381.832031 C 853.453125 382.4375 852.851562 384.097656 853.554688 384.648438 C 854.210938 385.253906 854.410156 386.261719 854.160156 387.265625 C 853.90625 388.324219 854.613281 389.632812 854.613281 389.632812 L 854.613281 409.507812 L 836.144531 409.507812 Z M 858.6875 389.632812 C 858.6875 389.632812 859.34375 388.324219 859.140625 387.265625 C 858.890625 386.261719 859.089844 385.253906 859.746094 384.648438 C 860.449219 384.097656 859.792969 382.4375 861.203125 381.832031 C 862.613281 381.175781 861.957031 380.019531 863.316406 380.019531 C 864.625 379.96875 864.070312 378.410156 865.429688 378.710938 C 866.789062 379.015625 866.488281 377.65625 867.898438 377.65625 C 869.304688 377.65625 869.054688 379.015625 870.414062 378.710938 C 871.769531 378.410156 871.21875 379.96875 872.527344 380.019531 C 873.886719 380.019531 873.230469 381.175781 874.640625 381.832031 C 876 382.4375 875.394531 384.097656 876.097656 384.648438 C 876.753906 385.253906 876.953125 386.261719 876.703125 387.265625 C 876.453125 388.324219 877.15625 389.632812 877.15625 389.632812 L 877.15625 409.507812 L 858.6875 409.507812 Z M 881.230469 389.632812 C 881.230469 389.632812 881.886719 388.324219 881.683594 387.265625 C 881.433594 386.261719 881.632812 385.253906 882.289062 384.648438 C 882.992188 384.097656 882.339844 382.4375 883.746094 381.832031 C 885.15625 381.175781 884.503906 380.019531 885.863281 380.019531 C 887.167969 379.96875 886.617188 378.410156 887.976562 378.710938 C 889.332031 379.015625 889.03125 377.65625 890.441406 377.65625 C 891.851562 377.65625 891.597656 379.015625 892.957031 378.710938 C 894.316406 378.410156 893.761719 379.96875 895.070312 380.019531 C 896.429688 380.019531 895.773438 381.175781 897.132812 381.832031 C 898.542969 382.4375 897.9375 384.097656 898.59375 384.648438 C 899.296875 385.253906 899.5 386.261719 899.246094 387.265625 C 898.996094 388.324219 899.699219 389.632812 899.699219 389.632812 L 899.699219 409.507812 L 881.230469 409.507812 Z M 884.652344 341.976562 C 884.652344 341.976562 884.703125 341.925781 884.703125 341.777344 C 884.703125 341.925781 884.703125 341.976562 884.703125 341.976562 L 884.703125 343.035156 L 884.652344 343.035156 Z M 907.851562 201.378906 C 907.851562 201.378906 908.054688 201.226562 908.054688 200.722656 C 908.054688 200.222656 908.054688 198.359375 908.65625 198.359375 C 909.261719 198.359375 909.261719 200.222656 909.261719 200.722656 C 909.261719 201.226562 909.460938 201.378906 909.460938 201.378906 L 909.460938 207.566406 L 907.851562 207.566406 Z M 910.316406 200.925781 C 910.316406 200.925781 910.71875 200.722656 910.71875 200.222656 C 910.71875 199.71875 910.71875 197.753906 911.878906 197.753906 C 913.085938 197.753906 913.085938 199.71875 913.085938 200.222656 C 913.085938 200.722656 913.4375 200.925781 913.4375 200.925781 L 913.4375 207.417969 L 910.316406 207.417969 Z M 915.5 267.851562 L 915.5 274.292969 L 912.785156 274.292969 L 912.785156 267.851562 Z M 914.847656 200.925781 C 914.847656 200.925781 915.199219 200.722656 915.199219 200.222656 C 915.199219 199.71875 915.199219 197.753906 916.40625 197.753906 C 917.5625 197.753906 917.5625 199.71875 917.5625 200.222656 C 917.5625 200.722656 917.917969 200.925781 917.917969 200.925781 L 917.917969 207.417969 L 914.847656 207.417969 Z M 918.820312 201.378906 C 918.820312 201.378906 919.023438 201.226562 919.023438 200.722656 C 919.023438 200.222656 919.023438 198.359375 919.628906 198.359375 C 920.230469 198.359375 920.179688 200.222656 920.179688 200.722656 C 920.179688 201.226562 920.382812 201.378906 920.382812 201.378906 L 920.382812 207.566406 L 918.820312 207.566406 Z M 925.214844 409.507812 L 924.507812 347.160156 C 924.960938 346.304688 926.570312 343.386719 928.585938 343.386719 L 928.585938 340.871094 L 924.457031 340.871094 L 923.804688 283.402344 C 923.804688 283.402344 924.960938 279.628906 927.527344 279.023438 L 927.527344 275.855469 L 923.703125 275.855469 L 923.097656 222.011719 C 923.097656 222.011719 922.746094 216.574219 927.125 214.714844 L 927.125 211.695312 C 927.125 211.695312 927.023438 210.6875 921.4375 210.234375 L 921.4375 197.753906 C 921.4375 197.753906 925.515625 197.402344 925.515625 195.589844 C 925.515625 193.78125 921.136719 193.78125 921.136719 191.214844 C 921.136719 188.746094 920.734375 185.125 914.644531 183.464844 C 914.59375 183.3125 914.542969 183.113281 914.542969 182.859375 C 914.542969 182.660156 914.542969 182.304688 914.542969 181.753906 C 914.949219 181.601562 915.25 181.199219 915.25 180.746094 C 915.25 180.292969 914.949219 179.890625 914.542969 179.738281 C 914.542969 179.335938 914.542969 178.933594 914.542969 178.53125 C 914.847656 178.429688 915.046875 178.128906 915.046875 177.777344 C 915.046875 177.425781 914.847656 177.125 914.496094 176.972656 C 914.496094 176.519531 914.496094 176.117188 914.496094 175.714844 C 914.59375 175.613281 914.695312 175.460938 914.695312 175.3125 C 914.695312 175.109375 914.59375 174.960938 914.445312 174.859375 C 914.394531 173.25 914.292969 172.039062 914.140625 171.992188 C 913.992188 172.039062 913.890625 173.25 913.789062 174.859375 C 913.6875 174.960938 913.589844 175.109375 913.589844 175.3125 C 913.589844 175.460938 913.640625 175.613281 913.789062 175.714844 C 913.789062 176.117188 913.738281 176.519531 913.738281 176.972656 C 913.4375 177.125 913.238281 177.425781 913.238281 177.777344 C 913.238281 178.128906 913.4375 178.429688 913.738281 178.53125 C 913.738281 178.933594 913.738281 179.335938 913.738281 179.738281 C 913.335938 179.890625 913.035156 180.292969 913.035156 180.746094 C 913.035156 181.199219 913.335938 181.601562 913.738281 181.753906 C 913.738281 182.304688 913.738281 182.660156 913.6875 182.859375 C 913.6875 183.113281 913.6875 183.3125 913.640625 183.464844 C 907.5 185.125 907.097656 188.746094 907.097656 191.214844 C 907.097656 193.78125 902.769531 193.78125 902.769531 195.589844 C 902.769531 197.402344 906.84375 197.753906 906.84375 197.753906 L 906.84375 210.234375 C 901.261719 210.6875 901.160156 211.695312 901.160156 211.695312 L 901.160156 214.714844 C 905.539062 216.574219 905.183594 222.011719 905.183594 222.011719 L 904.582031 275.855469 L 900.757812 275.855469 L 900.757812 279.023438 C 903.273438 279.628906 904.480469 283.402344 904.480469 283.402344 L 903.828125 339.460938 L 903.828125 340.871094 L 902.316406 340.871094 C 902.117188 341.222656 902.066406 341.574219 902.066406 341.777344 C 902.066406 341.574219 902.066406 341.222656 901.863281 340.871094 C 901.613281 340.316406 901.058594 339.710938 899.902344 339.308594 C 897.386719 340.265625 897.738281 341.976562 897.738281 341.976562 L 897.738281 343.035156 L 897.6875 343.035156 L 897.6875 341.976562 C 897.6875 341.976562 898.039062 340.265625 895.574219 339.308594 C 893.058594 340.265625 893.410156 341.976562 893.410156 341.976562 L 893.410156 343.035156 L 893.359375 343.035156 L 893.359375 341.976562 C 893.359375 341.976562 893.710938 340.265625 891.195312 339.308594 C 888.730469 340.265625 889.082031 341.976562 889.082031 341.976562 L 889.082031 343.035156 L 889.03125 343.035156 L 889.03125 341.976562 C 889.03125 341.976562 889.332031 340.265625 886.867188 339.308594 C 884.90625 340.066406 884.703125 341.273438 884.703125 341.777344 C 884.703125 341.273438 884.503906 340.066406 882.539062 339.308594 C 880.023438 340.265625 880.375 341.976562 880.375 341.976562 L 880.375 343.035156 L 880.324219 343.035156 L 880.324219 341.976562 C 880.324219 341.976562 880.679688 340.265625 878.164062 339.308594 C 875.644531 340.265625 876.046875 341.976562 876.046875 341.976562 L 876.046875 343.035156 L 876 343.035156 L 876 341.976562 C 876 341.976562 876.300781 340.265625 873.835938 339.308594 C 871.871094 340.066406 871.671875 341.273438 871.671875 341.777344 C 871.671875 341.273438 871.46875 340.066406 869.457031 339.308594 C 866.992188 340.265625 867.34375 341.976562 867.34375 341.976562 L 867.34375 343.035156 L 867.292969 343.035156 L 867.292969 341.976562 C 867.292969 341.976562 867.644531 340.265625 865.128906 339.308594 C 862.664062 340.265625 862.964844 341.976562 862.964844 341.976562 L 862.964844 343.035156 L 862.914062 343.035156 L 862.914062 341.976562 C 862.914062 341.976562 863.265625 340.265625 860.800781 339.308594 C 860.5 339.410156 860.296875 339.511719 860.097656 339.613281 L 860.097656 327.734375 C 860.097656 327.734375 871.167969 308.5625 846.410156 294.472656 C 846.410156 294.472656 847.0625 293.820312 845.703125 293.0625 C 844.394531 292.359375 840.269531 289.542969 838.8125 286.773438 C 837.453125 284.207031 836.445312 282.445312 834.382812 282.195312 C 834.382812 281.792969 834.382812 281.238281 834.382812 280.585938 C 834.886719 280.382812 835.289062 279.828125 835.289062 279.226562 C 835.289062 278.570312 834.886719 278.070312 834.382812 277.867188 C 834.382812 276.808594 834.382812 275.703125 834.332031 274.546875 C 834.734375 274.394531 834.984375 273.992188 834.984375 273.539062 C 834.984375 273.085938 834.683594 272.683594 834.332031 272.484375 C 834.28125 271.777344 834.28125 271.074219 834.28125 270.417969 C 834.535156 270.269531 834.683594 269.964844 834.683594 269.664062 C 834.683594 269.3125 834.484375 269.011719 834.230469 268.859375 C 834.128906 266.496094 833.980469 264.785156 833.777344 264.785156 C 833.578125 264.785156 833.476562 266.496094 833.375 268.859375 C 833.074219 269.011719 832.921875 269.3125 832.921875 269.664062 C 832.921875 269.964844 833.074219 270.269531 833.324219 270.417969 C 833.324219 271.074219 833.273438 271.777344 833.273438 272.484375 C 832.921875 272.683594 832.621094 273.085938 832.621094 273.539062 C 832.621094 273.992188 832.871094 274.394531 833.226562 274.546875 C 833.226562 275.703125 833.226562 276.808594 833.226562 277.816406 C 832.722656 278.070312 832.320312 278.570312 832.320312 279.226562 C 832.320312 279.828125 832.722656 280.382812 833.226562 280.585938 C 833.226562 281.238281 833.226562 281.792969 833.226562 282.195312 C 831.113281 282.445312 830.15625 284.207031 828.796875 286.773438 C 827.335938 289.542969 823.210938 292.359375 821.851562 293.0625 C 820.542969 293.820312 821.148438 294.472656 821.148438 294.472656 C 796.441406 308.5625 807.511719 327.734375 807.511719 327.734375 L 807.511719 339.914062 C 806.253906 340.820312 806.453125 341.976562 806.453125 341.976562 L 806.453125 343.035156 L 806.402344 343.035156 L 806.402344 341.976562 C 806.402344 341.976562 806.753906 340.265625 804.289062 339.308594 C 802.328125 340.066406 802.125 341.273438 802.125 341.777344 C 802.125 341.273438 801.875 340.066406 799.910156 339.308594 C 797.445312 340.265625 797.75 341.976562 797.75 341.976562 L 797.75 343.035156 L 797.75 341.976562 C 797.75 341.976562 798.101562 340.265625 795.585938 339.308594 C 793.066406 340.265625 793.421875 341.976562 793.421875 341.976562 L 793.421875 343.035156 L 793.371094 343.035156 L 793.371094 341.976562 C 793.371094 341.976562 793.722656 340.265625 791.054688 339.308594 C 789.898438 339.710938 789.34375 340.316406 789.042969 340.820312 L 789.042969 287.175781 C 789.042969 287.175781 790.550781 285.316406 790.703125 283.957031 C 790.804688 282.597656 791.761719 279.878906 792.414062 279.425781 L 790.402344 279.425781 L 790.402344 271.125 L 792.113281 271.125 C 792.164062 271.125 792.664062 271.125 792.664062 270.46875 C 792.664062 269.765625 792.164062 269.664062 791.003906 269.664062 C 791.003906 269.664062 790.703125 265.4375 787.03125 262.921875 L 786.578125 262.921875 C 786.578125 262.671875 786.578125 262.167969 786.578125 261.5625 C 786.828125 261.460938 786.980469 261.261719 786.980469 261.058594 C 786.980469 260.808594 786.777344 260.605469 786.527344 260.507812 C 786.476562 258.542969 786.375 256.230469 786.175781 256.230469 C 785.921875 256.230469 785.773438 258.542969 785.773438 260.507812 C 785.519531 260.605469 785.367188 260.808594 785.367188 261.058594 C 785.367188 261.261719 785.46875 261.460938 785.722656 261.5625 C 785.722656 262.167969 785.722656 262.671875 785.722656 262.921875 L 785.320312 262.921875 C 781.59375 265.4375 781.292969 269.664062 781.292969 269.664062 C 780.136719 269.664062 779.683594 269.765625 779.683594 270.46875 C 779.683594 271.125 780.136719 271.125 780.1875 271.125 L 781.898438 271.125 L 781.898438 279.425781 L 779.882812 279.425781 C 780.539062 279.878906 781.496094 282.597656 781.59375 283.957031 C 781.746094 285.316406 783.253906 287.175781 783.253906 287.175781 L 783.253906 293.316406 L 781.140625 295.628906 L 778.976562 293.316406 L 776.8125 295.628906 L 775.605469 294.324219 C 774.902344 290.296875 771.480469 278.117188 754.269531 269.0625 C 754.269531 269.0625 755.425781 268.003906 753.265625 266.949219 C 751.101562 265.890625 749.035156 263.777344 747.578125 261.511719 C 746.167969 259.296875 742.546875 252.40625 737.914062 252.050781 L 737.914062 251.5 C 738.117188 251.398438 738.316406 251.246094 738.316406 251.046875 C 738.316406 250.84375 738.117188 250.695312 737.914062 250.59375 L 737.914062 249.9375 C 739.023438 249.789062 739.828125 248.933594 739.828125 247.875 C 739.828125 246.820312 739.023438 245.964844 737.914062 245.761719 L 737.914062 244.554688 C 738.417969 244.453125 738.769531 244.101562 738.769531 243.699219 C 738.769531 243.296875 738.417969 242.945312 737.914062 242.84375 L 737.914062 240.730469 C 738.417969 240.578125 738.769531 240.125 738.769531 239.574219 C 738.769531 239.019531 738.417969 238.566406 737.914062 238.414062 L 737.914062 235.796875 C 738.21875 235.597656 738.46875 235.042969 738.46875 234.441406 C 738.46875 233.835938 738.21875 233.332031 737.914062 233.082031 C 737.867188 231.875 737.765625 224.726562 737.511719 224.527344 C 737.261719 224.726562 737.160156 231.875 737.109375 233.082031 C 736.808594 233.332031 736.558594 233.835938 736.558594 234.441406 C 736.558594 235.042969 736.808594 235.597656 737.109375 235.796875 L 737.109375 238.414062 C 736.605469 238.566406 736.253906 239.019531 736.253906 239.574219 C 736.253906 240.125 736.605469 240.578125 737.109375 240.730469 L 737.109375 242.84375 C 736.605469 242.945312 736.253906 243.296875 736.253906 243.699219 C 736.253906 244.101562 736.605469 244.453125 737.109375 244.554688 L 737.109375 245.761719 C 736.003906 245.964844 735.199219 246.820312 735.199219 247.875 C 735.199219 248.933594 736.003906 249.789062 737.109375 249.9375 L 737.109375 250.59375 C 736.910156 250.695312 736.707031 250.84375 736.707031 251.046875 C 736.707031 251.246094 736.910156 251.398438 737.109375 251.5 L 737.109375 252.050781 C 732.480469 252.40625 728.859375 259.296875 727.449219 261.511719 C 725.988281 263.777344 723.925781 265.890625 721.761719 266.949219 C 719.597656 268.003906 720.757812 269.0625 720.757812 269.0625 C 703.546875 278.117188 700.125 290.296875 699.417969 294.324219 L 698.210938 295.628906 L 696.046875 293.316406 L 693.882812 295.628906 L 691.769531 293.316406 L 691.769531 287.175781 C 691.769531 287.175781 693.28125 285.316406 693.429688 283.957031 C 693.53125 282.597656 694.488281 279.878906 695.140625 279.425781 L 693.128906 279.425781 L 693.128906 271.125 L 694.839844 271.125 C 694.890625 271.125 695.34375 271.125 695.34375 270.46875 C 695.34375 269.765625 694.890625 269.664062 693.734375 269.664062 C 693.734375 269.664062 693.429688 265.4375 689.757812 262.921875 L 689.304688 262.921875 C 689.304688 262.671875 689.304688 262.167969 689.304688 261.5625 C 689.558594 261.460938 689.65625 261.261719 689.65625 261.058594 C 689.65625 260.808594 689.507812 260.605469 689.253906 260.507812 C 689.203125 258.542969 689.105469 256.230469 688.851562 256.230469 C 688.652344 256.230469 688.550781 258.542969 688.5 260.507812 C 688.25 260.605469 688.046875 260.808594 688.046875 261.058594 C 688.046875 261.261719 688.25 261.460938 688.449219 261.5625 C 688.449219 262.167969 688.449219 262.671875 688.449219 262.921875 L 687.996094 262.921875 C 684.324219 265.4375 684.019531 269.664062 684.019531 269.664062 C 682.863281 269.664062 682.359375 269.765625 682.359375 270.46875 C 682.359375 271.125 682.863281 271.125 682.914062 271.125 L 684.625 271.125 L 684.625 279.425781 L 682.613281 279.425781 C 683.265625 279.878906 684.222656 282.597656 684.324219 283.957031 C 684.472656 285.316406 685.984375 287.175781 685.984375 287.175781 L 685.984375 340.921875 C 685.730469 340.367188 685.128906 339.761719 683.921875 339.308594 C 681.304688 340.265625 681.65625 341.976562 681.65625 341.976562 L 681.65625 343.035156 L 681.605469 343.035156 L 681.605469 341.976562 C 681.605469 341.976562 681.957031 340.265625 679.441406 339.308594 C 676.976562 340.265625 677.277344 341.976562 677.277344 341.976562 L 677.277344 343.035156 L 677.277344 341.976562 C 677.277344 341.976562 677.578125 340.265625 675.113281 339.308594 C 673.152344 340.066406 672.949219 341.273438 672.949219 341.777344 C 672.949219 341.273438 672.699219 340.066406 670.734375 339.308594 C 668.269531 340.265625 668.621094 341.976562 668.621094 341.976562 L 668.621094 343.035156 L 668.574219 343.035156 L 668.574219 341.976562 C 668.574219 341.976562 668.773438 340.820312 667.515625 339.914062 L 667.515625 327.734375 C 667.515625 327.734375 678.585938 308.5625 653.878906 294.472656 C 653.878906 294.472656 654.484375 293.820312 653.175781 293.0625 C 651.816406 292.359375 647.6875 289.542969 646.230469 286.773438 C 644.871094 284.207031 643.914062 282.445312 641.800781 282.195312 C 641.800781 281.792969 641.800781 281.238281 641.800781 280.585938 C 642.355469 280.382812 642.707031 279.828125 642.707031 279.226562 C 642.707031 278.570312 642.355469 278.070312 641.800781 277.816406 C 641.800781 276.808594 641.800781 275.703125 641.800781 274.546875 C 642.152344 274.394531 642.40625 273.992188 642.40625 273.539062 C 642.40625 273.085938 642.152344 272.683594 641.75 272.484375 C 641.75 271.777344 641.699219 271.074219 641.699219 270.417969 C 641.953125 270.269531 642.101562 269.964844 642.101562 269.664062 C 642.101562 269.3125 641.953125 269.011719 641.652344 268.859375 C 641.550781 266.496094 641.449219 264.785156 641.246094 264.785156 C 641.046875 264.785156 640.894531 266.496094 640.796875 268.859375 C 640.542969 269.011719 640.34375 269.3125 640.34375 269.664062 C 640.34375 269.964844 640.492188 270.269531 640.746094 270.417969 C 640.746094 271.074219 640.746094 271.777344 640.695312 272.484375 C 640.34375 272.683594 640.039062 273.085938 640.039062 273.539062 C 640.039062 273.992188 640.292969 274.394531 640.695312 274.546875 C 640.695312 275.703125 640.644531 276.808594 640.644531 277.867188 C 640.140625 278.070312 639.738281 278.570312 639.738281 279.226562 C 639.738281 279.828125 640.140625 280.382812 640.644531 280.585938 C 640.644531 281.238281 640.644531 281.792969 640.644531 282.195312 C 638.582031 282.445312 637.574219 284.207031 636.214844 286.773438 C 634.757812 289.542969 630.628906 292.359375 629.320312 293.0625 C 627.964844 293.820312 628.617188 294.472656 628.617188 294.472656 C 603.859375 308.5625 614.929688 327.734375 614.929688 327.734375 L 614.929688 339.613281 C 614.726562 339.511719 614.527344 339.410156 614.226562 339.308594 C 611.757812 340.265625 612.113281 341.976562 612.113281 341.976562 L 612.113281 343.035156 L 612.0625 343.035156 L 612.0625 341.976562 C 612.0625 341.976562 612.414062 340.265625 609.898438 339.308594 C 607.382812 340.265625 607.734375 341.976562 607.734375 341.976562 L 607.734375 343.035156 L 607.683594 343.035156 L 607.683594 341.976562 C 607.683594 341.976562 608.035156 340.265625 605.570312 339.308594 C 603.558594 340.066406 603.355469 341.273438 603.355469 341.777344 C 603.355469 341.273438 603.15625 340.066406 601.191406 339.308594 C 598.726562 340.265625 599.027344 341.976562 599.027344 341.976562 L 599.027344 343.035156 L 599.027344 341.976562 C 599.027344 341.976562 599.378906 340.265625 596.863281 339.308594 C 594.347656 340.265625 594.699219 341.976562 594.699219 341.976562 L 594.699219 343.035156 L 594.648438 343.035156 L 594.648438 341.976562 C 594.648438 341.976562 595.003906 340.265625 592.484375 339.308594 C 590.523438 340.066406 590.324219 341.273438 590.324219 341.777344 C 590.324219 341.273438 590.121094 340.066406 588.160156 339.308594 C 585.691406 340.265625 585.996094 341.976562 585.996094 341.976562 L 585.996094 343.035156 L 585.945312 343.035156 L 585.945312 341.976562 C 585.945312 341.976562 586.296875 340.265625 583.832031 339.308594 C 581.316406 340.265625 581.667969 341.976562 581.667969 341.976562 L 581.667969 343.035156 L 581.617188 343.035156 L 581.617188 341.976562 C 581.617188 341.976562 581.96875 340.265625 579.453125 339.308594 C 577.492188 340.066406 577.289062 341.273438 577.289062 341.777344 C 577.289062 341.273438 577.085938 340.066406 575.125 339.308594 C 573.96875 339.710938 573.414062 340.316406 573.164062 340.871094 L 572.710938 340.871094 C 572.507812 340.417969 572.054688 339.863281 571.199219 339.460938 L 570.546875 283.402344 C 570.546875 283.402344 571.753906 279.628906 574.269531 279.023438 L 574.269531 275.855469 L 570.445312 275.855469 L 569.890625 222.011719 C 569.890625 222.011719 569.488281 216.574219 573.867188 214.714844 L 573.867188 211.695312 C 573.867188 211.695312 573.765625 210.6875 568.179688 210.234375 L 568.179688 197.753906 C 568.179688 197.753906 572.257812 197.402344 572.257812 195.589844 C 572.257812 193.78125 567.929688 193.78125 567.929688 191.214844 C 567.929688 188.746094 567.527344 185.125 561.386719 183.464844 C 561.335938 183.3125 561.335938 183.113281 561.335938 182.859375 C 561.285156 182.660156 561.285156 182.304688 561.285156 181.753906 C 561.6875 181.601562 561.992188 181.199219 561.992188 180.746094 C 561.992188 180.292969 561.6875 179.890625 561.285156 179.738281 C 561.285156 179.335938 561.285156 178.933594 561.285156 178.53125 C 561.589844 178.429688 561.789062 178.128906 561.789062 177.777344 C 561.789062 177.425781 561.589844 177.125 561.285156 176.972656 C 561.285156 176.519531 561.238281 176.117188 561.238281 175.714844 C 561.386719 175.613281 561.4375 175.460938 561.4375 175.3125 C 561.4375 175.109375 561.335938 174.960938 561.238281 174.859375 C 561.136719 173.25 561.035156 172.039062 560.882812 171.992188 C 560.734375 172.039062 560.632812 173.25 560.582031 174.859375 C 560.429688 174.960938 560.332031 175.109375 560.332031 175.3125 C 560.332031 175.460938 560.429688 175.613281 560.53125 175.714844 C 560.53125 176.117188 560.53125 176.519531 560.53125 176.972656 C 560.230469 177.125 559.976562 177.425781 559.976562 177.777344 C 559.976562 178.128906 560.179688 178.429688 560.480469 178.53125 C 560.480469 178.933594 560.480469 179.335938 560.480469 179.738281 C 560.078125 179.890625 559.777344 180.292969 559.777344 180.746094 C 559.777344 181.199219 560.078125 181.601562 560.480469 181.753906 C 560.480469 182.304688 560.480469 182.660156 560.480469 182.859375 C 560.480469 183.113281 560.429688 183.3125 560.382812 183.464844 C 554.292969 185.125 553.890625 188.746094 553.890625 191.214844 C 553.890625 193.78125 549.511719 193.78125 549.511719 195.589844 C 549.511719 197.402344 553.585938 197.753906 553.585938 197.753906 L 553.585938 210.234375 C 548 210.6875 547.902344 211.695312 547.902344 211.695312 L 547.902344 214.714844 C 552.277344 216.574219 551.925781 222.011719 551.925781 222.011719 L 551.324219 275.855469 L 547.5 275.855469 L 547.5 279.023438 C 550.066406 279.628906 551.222656 283.402344 551.222656 283.402344 L 550.566406 340.871094 L 546.441406 340.871094 L 546.441406 343.386719 C 548.453125 343.386719 550.066406 346.304688 550.519531 347.160156 L 549.8125 409.507812 L 542.96875 409.507812 L 542.96875 426.164062 L 932.058594 426.164062 L 932.058594 409.507812 L 925.214844 409.507812"/></svg>